<svg xmlns="http://www.w3.org/2000/svg" viewBox="0 0 120 40"><path fill="#ffc576" fill-rule="evenodd" d="M14.469 6.212a10.531 10.531 0 1 1 0 21.061H6.278V12.424h2.45v12.728l5.435.023a8.332 8.332 0 1 0 0-16.662L2.45 8.485V40H0V6.212h6.278V0H15a16.907 16.907 0 0 1 17 16.818 16.907 16.907 0 0 1-17 16.818H6.278v-2.3h8.564a14.516 14.516 0 1 0 0-29.03H8.723v3.909h5.742Z"/><path fill="#fff" fill-rule="evenodd" d="M44.3 23.944a5.663 5.663 0 0 0 2.59-.542 3.757 3.757 0 0 0 1.61-1.488 4.266 4.266 0 0 0 .542-2.158 4.061 4.061 0 0 0-1.212-3.1 4.942 4.942 0 0 0-3.53-1.143h-5.089V28.5h3.141v-4.556H44.3Zm-.35-2.516h-1.6v-3.38h1.6a1.6 1.6 0 0 1 1.892 1.708q0 1.672-1.892 1.672Zm6.613-5.915V28.5H53.7V15.513h-3.136ZM67.464 28.5l-4.372-6.448 4.1-6.54h-3.586l-2.3 3.913-2.664-3.913h-3.725l4.28 6.3-4.151 6.688h3.6L61 24.459l2.735 4.041h3.729Zm1.194-12.987V28.5H71.8V15.513h-3.142Zm16.974 6.466a6.84 6.84 0 0 0-.817-3.38 5.641 5.641 0 0 0-2.342-2.278 7.626 7.626 0 0 0-3.619-.808h-4.9V28.5h4.9a7.5 7.5 0 0 0 3.61-.827 5.728 5.728 0 0 0 2.351-2.306 6.891 6.891 0 0 0 .817-3.389Zm-7.054 3.711H77.09v-7.422h1.488a3.97 3.97 0 0 1 2.856.974 3.605 3.605 0 0 1 1.019 2.737 3.6 3.6 0 0 1-1.019 2.737 3.969 3.969 0 0 1-2.856.974Zm16.9-7.679v-2.5H87.4V28.5h8.083v-2.517h-4.947V23.1h4.39v-2.37h-4.39v-2.719h4.942Zm11.1 6.834a3.442 3.442 0 0 0-.578-2.058 3.9 3.9 0 0 0-1.36-1.2 14.515 14.515 0 0 0-2.039-.836q-.862-.312-1.322-.514a2.3 2.3 0 0 1-.763-.524 1.1 1.1 0 0 1-.3-.781 1.079 1.079 0 0 1 .34-.863 1.317 1.317 0 0 1 .891-.294 1.38 1.38 0 0 1 1.02.377 1.748 1.748 0 0 1 .468 1.02h3.4a3.925 3.925 0 0 0-1.442-2.829 5.332 5.332 0 0 0-3.444-1.029 5.931 5.931 0 0 0-2.379.45 3.738 3.738 0 0 0-1.626 1.3 3.417 3.417 0 0 0-.588 2 3.4 3.4 0 0 0 .56 2.03 3.7 3.7 0 0 0 1.341 1.176 16.2 16.2 0 0 0 2.011.817q.846.294 1.323.505a2.521 2.521 0 0 1 .8.542 1.14 1.14 0 0 1 .322.827 1.16 1.16 0 0 1-.349.882 1.335 1.335 0 0 1-.956.331 1.61 1.61 0 0 1-1.148-.423 1.759 1.759 0 0 1-.523-1.157h-3.345a3.859 3.859 0 0 0 1.543 2.976 5.817 5.817 0 0 0 3.6 1.066 5.439 5.439 0 0 0 2.471-.514 3.693 3.693 0 0 0 1.543-1.378 3.58 3.58 0 0 0 .523-1.892Zm13.08-9.332h-3.766l-4.446 5.713v-5.713H108.3V28.5h3.141v-5.823l4.409 5.823h3.8l-5.236-6.631Z"/></svg>