<svg xmlns="http://www.w3.org/2000/svg" xmlns:xlink="http://www.w3.org/1999/xlink" width="644" height="31.111" viewBox="0 0 644 31.111">
  <defs>
    <clipPath id="clip-path">
      <rect id="Rectangle_6" data-name="Rectangle 6" width="644" height="31.111" fill="#fff"/>
    </clipPath>
    <clipPath id="clip-path-2">
      <rect id="Rectangle_1" data-name="Rectangle 1" width="74.667" height="18.667" transform="translate(556.889 5.444)" fill="#fff"/>
    </clipPath>
    <clipPath id="clip-path-3">
      <rect id="Rectangle_2" data-name="Rectangle 2" width="76.222" height="18.667" transform="translate(74.667 5.444)" fill="#fff"/>
    </clipPath>
    <clipPath id="clip-path-4">
      <rect id="Rectangle_3" data-name="Rectangle 3" width="40.444" height="9.333" transform="translate(15.556 10.889)" fill="#fff"/>
    </clipPath>
    <clipPath id="clip-path-5">
      <rect id="Rectangle_5" data-name="Rectangle 5" width="175.778" height="21.778" transform="translate(234.111 4.667)" fill="#fff"/>
    </clipPath>
    <clipPath id="clip-path-6">
      <rect id="Rectangle_4" data-name="Rectangle 4" width="10.111" height="10.889" transform="translate(395.5 10.111)" fill="#fff"/>
    </clipPath>
  </defs>
  <g id="title-bar" clip-path="url(#clip-path)">
    <path id="Path_1" data-name="Path 1" d="M0,12.444c0-4.356,0-6.534.848-8.2a7.778,7.778,0,0,1,3.4-3.4C5.911,0,8.088,0,12.444,0H631.555c4.356,0,6.534,0,8.2.848a7.772,7.772,0,0,1,3.4,3.4c.848,1.664.848,3.842.848,8.2V31.111H0Z" fill="#25334d"/>
    <g id="Group_1" data-name="Group 1" clip-path="url(#clip-path-2)">
      <path id="Path_2" data-name="Path 2" d="M566.229,16.624a.6.6,0,0,0,.6-.593V9.541l-.045-.955.393.471.9.961a.531.531,0,0,0,.4.174.517.517,0,0,0,.368-.9l-2.16-2.083A.616.616,0,0,0,566.229,7a.607.607,0,0,0-.458.206L563.6,9.29a.52.52,0,0,0-.174.387.514.514,0,0,0,.535.516.546.546,0,0,0,.406-.174l.9-.961.4-.477-.051.961v6.489A.6.6,0,0,0,566.229,16.624Zm-3.72,5.154h7.426a1.882,1.882,0,0,0,2.121-2.1V13.334a1.882,1.882,0,0,0-2.121-2.1H568.2v1.284h1.656a.829.829,0,0,1,.922.929v6.115a.829.829,0,0,1-.922.929h-7.258a.826.826,0,0,1-.921-.929V13.444a.826.826,0,0,1,.921-.929h1.676V11.231h-1.76a1.881,1.881,0,0,0-2.12,2.1v6.341A1.884,1.884,0,0,0,562.509,21.778Z" fill="#b7b7b7"/>
      <path id="Path_3" data-name="Path 3" d="M593.444,20.222a.736.736,0,0,0,.742-.71v-4h3.968a.729.729,0,1,0,0-1.459h-3.968V10.043a.742.742,0,0,0-1.483,0v4.005h-3.968a.729.729,0,1,0,0,1.459H592.7v4A.74.74,0,0,0,593.444,20.222Z" fill="#b7b7b7"/>
      <path id="Path_4" data-name="Path 4" d="M617.344,18.694h1.1v.974a1.884,1.884,0,0,0,2.122,2.1H627.1a1.884,1.884,0,0,0,2.121-2.1V13.083a1.884,1.884,0,0,0-2.121-2.1H626v-.967a1.884,1.884,0,0,0-2.121-2.1h-6.539a1.882,1.882,0,0,0-2.122,2.1v6.578A1.879,1.879,0,0,0,617.344,18.694Zm.084-1.283a.829.829,0,0,1-.923-.935V10.13a.824.824,0,0,1,.923-.929H623.8a.826.826,0,0,1,.922.929v.851h-4.159a1.884,1.884,0,0,0-2.122,2.1V17.41Zm3.217,3.069a.822.822,0,0,1-.915-.929V13.2a.822.822,0,0,1,.915-.929h6.372a.827.827,0,0,1,.922.929v6.352a.827.827,0,0,1-.922.929Z" fill="#b7b7b7"/>
    </g>
    <g id="Group_2" data-name="Group 2" clip-path="url(#clip-path-3)">
      <path id="Path_5" data-name="Path 5" d="M78.346,21.4H89.393a1.888,1.888,0,0,0,2.131-2.1V11.438a1.888,1.888,0,0,0-2.131-2.1H78.346a1.884,1.884,0,0,0-2.124,2.1V19.3A1.886,1.886,0,0,0,78.346,21.4Zm.084-1.285a.83.83,0,0,1-.923-.936V11.554a.83.83,0,0,1,.923-.936h2.944v9.5Zm10.879-9.5a.83.83,0,0,1,.923.936v7.625a.83.83,0,0,1-.923.936H82.594v-9.5Zm-9.2,2.363a.433.433,0,0,0,.426-.42.427.427,0,0,0-.426-.413H78.785a.427.427,0,0,0-.426.413.433.433,0,0,0,.426.42Zm0,1.737a.417.417,0,1,0,0-.833H78.785a.417.417,0,1,0,0,.833Zm0,1.73a.41.41,0,1,0,0-.82H78.785a.41.41,0,1,0,0,.82Z" fill="#b7b7b7"/>
      <path id="Path_6" data-name="Path 6" d="M116.2,20.3l-4.728-4.624a.768.768,0,0,1-.249-.559.755.755,0,0,1,.255-.565l4.728-4.618a.689.689,0,0,1,.5-.207.712.712,0,0,1,.723.717.741.741,0,0,1-.219.523l-4.253,4.144,4.253,4.156a.73.73,0,0,1,.219.523.722.722,0,0,1-1.227.51Z" fill="#b7b7b7"/>
      <path id="Path_7" data-name="Path 7" d="M139.556,20.5a.7.7,0,0,0,.505-.207l4.727-4.618a.781.781,0,0,0,.249-.565.736.736,0,0,0-.249-.559l-4.727-4.624a.7.7,0,0,0-.505-.207.712.712,0,0,0-.723.717.767.767,0,0,0,.219.523l4.26,4.156-4.26,4.144a.741.741,0,0,0-.219.523A.712.712,0,0,0,139.556,20.5Z" fill="#5a5a5a"/>
    </g>
    <g id="Group_3" data-name="Group 3" clip-path="url(#clip-path-4)">
      <circle id="Ellipse_1" data-name="Ellipse 1" cx="4.667" cy="4.667" r="4.667" transform="translate(15.556 10.889)" fill="#ed6a5e"/>
      <circle id="Ellipse_2" data-name="Ellipse 2" cx="4.278" cy="4.278" r="4.278" transform="translate(15.944 11.278)" fill="none" stroke="rgba(0,0,0,0.1)" stroke-width="0.778"/>
      <circle id="Ellipse_3" data-name="Ellipse 3" cx="4.667" cy="4.667" r="4.667" transform="translate(31.111 10.889)" fill="#f4bd50"/>
      <circle id="Ellipse_4" data-name="Ellipse 4" cx="4.278" cy="4.278" r="4.278" transform="translate(31.5 11.278)" fill="none" stroke="rgba(0,0,0,0.1)" stroke-width="0.778"/>
      <circle id="Ellipse_5" data-name="Ellipse 5" cx="4.667" cy="4.667" r="4.667" transform="translate(46.667 10.889)" fill="#61c454"/>
      <circle id="Ellipse_6" data-name="Ellipse 6" cx="4.278" cy="4.278" r="4.278" transform="translate(47.056 11.278)" fill="none" stroke="rgba(0,0,0,0.1)" stroke-width="0.778"/>
    </g>
    <path id="Path_8" data-name="Path 8" d="M220.889,21.778a.979.979,0,0,0,.45-.13c3.707-2.034,4.994-2.976,4.994-5.341V11.4a1.252,1.252,0,0,0-.946-1.339c-.714-.305-3.115-1.15-3.816-1.39a2.241,2.241,0,0,0-.682-.117,2.724,2.724,0,0,0-.682.117c-.7.2-3.1,1.092-3.817,1.39a1.248,1.248,0,0,0-.946,1.339v4.906c0,2.365,1.294,3.294,4.988,5.341A1.023,1.023,0,0,0,220.889,21.778Zm.347-11.91c.843.338,2.678.994,3.643,1.338.18.071.225.169.225.4v4.457c0,1.9-.946,2.417-3.848,4.184a.727.727,0,0,1-.361.149V9.8A1.053,1.053,0,0,1,221.236,9.868Z" fill="#b7b7b7"/>
    <g id="Group_5" data-name="Group 5" clip-path="url(#clip-path-5)">
      <path id="Path_9" data-name="Path 9" d="M234.111,12.133c0-2.614,0-3.92.509-4.919a4.664,4.664,0,0,1,2.039-2.039c1-.509,2.305-.509,4.919-.509H402.422c2.614,0,3.921,0,4.919.509a4.664,4.664,0,0,1,2.039,2.039c.509,1,.509,2.305.509,4.919v6.844c0,2.614,0,3.92-.509,4.919a4.665,4.665,0,0,1-2.039,2.039c-1,.509-2.3.509-4.919.509H241.578c-2.614,0-3.921,0-4.919-.509A4.665,4.665,0,0,1,234.62,23.9c-.509-1-.509-2.305-.509-4.919Z" transform="translate(-0.111)" fill="#3c5175"/>
      <g id="Group_4" data-name="Group 4" clip-path="url(#clip-path-6)">
        <path id="Path_11" data-name="Path 11" d="M400.423,15.347a.414.414,0,0,0,.319-.128l1.869-1.882a.457.457,0,0,0,0-.67l-1.869-1.9a.406.406,0,0,0-.319-.137.455.455,0,0,0-.319.766l1.09,1.066a4.445,4.445,0,0,0-.652-.05,4.072,4.072,0,1,0,4.088,4.065.449.449,0,0,0-.465-.469.436.436,0,0,0-.442.469,3.168,3.168,0,1,1-3.181-3.176,4.879,4.879,0,0,1,.811.064L400.109,14.6a.416.416,0,0,0-.128.305A.441.441,0,0,0,400.423,15.347Z" fill="#e3e3e3"/>
      </g>
      <path id="Path_12" data-name="Path 12" d="M248,10.167a2.92,2.92,0,0,0-2.917,2.917v1.75H244.5A1.168,1.168,0,0,0,243.333,16v4.667a1.168,1.168,0,0,0,1.167,1.167h7a1.168,1.168,0,0,0,1.167-1.167V16a1.168,1.168,0,0,0-1.167-1.167h-.583v-1.75A2.92,2.92,0,0,0,248,10.167ZM251.5,16v4.667h-7V16Zm-5.25-1.167v-1.75a1.75,1.75,0,0,1,3.5,0v1.75Z" fill="#fff"/>
      <text id="www.pixidesk.in" transform="translate(272 21)" fill="#fff" font-size="14" font-family="MicrosoftSansSerif, Microsoft Sans Serif"><tspan x="0" y="0">www.pixidesk.in</tspan></text>
    </g>
  </g>
</svg>
